<?xml version="1.0" encoding="utf-8"?>
<!-- Generator: Adobe Illustrator 13.0.1, SVG Export Plug-In . SVG Version: 6.00 Build 14948)  -->
<!DOCTYPE svg PUBLIC "-//W3C//DTD SVG 1.1//EN" "http://www.w3.org/Graphics/SVG/1.1/DTD/svg11.dtd">
<svg version="1.1" id="Layer_1" xmlns="http://www.w3.org/2000/svg" xmlns:xlink="http://www.w3.org/1999/xlink" x="0px" y="0px"
	 width="250.25px" height="59px" viewBox="0 0 250.25 59" enable-background="new 0 0 250.25 59" xml:space="preserve">
<rect x="54.46" y="-140.11" fill-rule="evenodd" clip-rule="evenodd" fill="none" width="198.21" height="60.31"/>
<rect x="-331" y="-189.75" fill="none" width="612" height="792"/>
<rect x="-2.5" y="0.35" fill-rule="evenodd" clip-rule="evenodd" fill="none" width="260.52" height="83.73"/>
<g>
	<rect x="-331" y="-189.75" fill="none" width="612" height="792"/>
	<g>
		<rect x="-330.95" y="-189.75" fill="none" width="612" height="792"/>
		<path fill-rule="evenodd" clip-rule="evenodd" fill="#EF3E33" d="M2.653,27.365C0.57,19.945,1.788,13.079,1.788,4.776
			c7.426-3.692,14.779-4.027,22.747-4.027c6.89,0,16.661,0.89,22.546,4.015c0.603,7.828,0.95,14.718-1.06,23.612
			c-2.011,8.894-7.858,21.181-21.193,30.258C10.274,49.094,5.517,37.562,2.653,27.365"/>
		<path fill-rule="evenodd" clip-rule="evenodd" fill="#FFFFFF" d="M9.602,16.493l-7.17,7.798
			c1.609,7.474,6.074,23.143,22.34,33.712C40.89,46.91,45.209,31.705,46.184,24.12l-6.969-7.645l-7.719,7.822l-7.109-7.755
			l-7.085,7.657L9.602,16.493"/>
		<path fill-rule="evenodd" clip-rule="evenodd" fill="#FFFFFF" d="M37.807,10.482l-0.656,0.767l1.277-0.183L37.807,10.482
			 M39.815,9.606l0.803,1.46h-1.57L39.815,9.606z M41.86,10.482l0.656,0.767l-1.277-0.183L41.86,10.482z M43.357,8.584
			c-0.073,0-0.257-0.073,0-0.147c0.146,0,0.511,0,0.911,0.512c0.184-0.073,0.585-0.731,1.023-0.512c0,0.037-1.424,3.177-1.57,3.433
			c-0.621-0.329-4.271-0.548-3.906-0.548c0.292,0-3.323,0.11-3.87,0.548c-0.184-0.329-1.607-3.505-1.607-3.505
			c0.438-0.183,0.913,0.438,1.06,0.511c0.364-0.511,0.729-0.511,0.803-0.511c0.365,0.072,0.146,0.146,0.109,0.219
			c-1.753,1.424,0.804,3.03,1.352,1.424c2.263,0.255,1.643-1.571,1.095-1.826c-0.438-0.109-0.146-0.183,0-0.183
			c0.184-0.109,0.476-0.109,0.476,0.074c0-0.986,0.072-1.645,0.584-1.937c0.548,0.365,0.62,0.95,0.548,1.937
			c0.072-0.183,0.328-0.074,0.547-0.074c0.073,0.074,0.438,0.074,0.073,0.219c-0.62,0.219-1.168,2.155,1.059,1.79
			C42.553,11.614,45.255,9.825,43.357,8.584z"/>
		<path fill-rule="evenodd" clip-rule="evenodd" fill="#FFFFFF" d="M37.117,12.41c0.219,0,0.438,0.219,0.438,0.401
			c0,0.219-0.219,0.438-0.438,0.438c-0.183,0-0.401-0.219-0.401-0.438C36.716,12.629,36.935,12.41,37.117,12.41 M38.432,12.118
			c0.22,0,0.438,0.219,0.438,0.401c0,0.219-0.219,0.438-0.438,0.438c-0.183,0-0.401-0.219-0.401-0.438
			C38.03,12.337,38.249,12.118,38.432,12.118z M39.856,12.008c0.219,0,0.438,0.219,0.438,0.402c0,0.219-0.219,0.438-0.438,0.438
			c-0.184,0-0.402-0.219-0.402-0.438C39.454,12.227,39.673,12.008,39.856,12.008z M41.28,12.118c0.219,0,0.438,0.219,0.438,0.401
			c0,0.219-0.219,0.438-0.438,0.438c-0.184,0-0.402-0.219-0.402-0.438C40.878,12.337,41.097,12.118,41.28,12.118z M42.631,12.41
			c0.219,0,0.438,0.219,0.438,0.401c0,0.219-0.22,0.438-0.438,0.438c-0.183,0-0.402-0.219-0.402-0.438
			C42.229,12.629,42.448,12.41,42.631,12.41z M36.898,13.651c-0.256-0.438-0.548-1.205-0.694-1.388
			c0.621-0.474,2.921-0.547,3.761-0.547c1.242,0,2.958,0.182,3.505,0.547c0,0-0.255,0.913-0.474,1.461
			c-0.986-0.365-2.301-0.511-3.177-0.511C38.833,13.213,37.665,13.359,36.898,13.651z"/>
		<path fill-rule="evenodd" clip-rule="evenodd" fill="#FFFFFF" d="M39.813,13.506c1.606,0,3.095,0.298,3.095,0.476
			c0,0.179-1.31,0.298-2.977,0.298c-1.606,0-2.976-0.119-2.976-0.298C36.955,13.804,38.205,13.506,39.813,13.506"/>
		<path fill-rule="evenodd" clip-rule="evenodd" fill="#FFFFFF" d="M20.81,6.347h0.243V5.13H20.81V6.347z M22.179,5.952
			L22.179,5.952L21.692,5.1h-0.273v1.217h0.243V5.465l0.487,0.852h0.273V5.1h-0.244V5.952z M19.806,8.964h0.548
			c0.427,0,0.518-0.396,0.518-0.639c0-0.244-0.091-0.609-0.487-0.609h-0.578V8.964z M20.08,7.929h0.244
			c0.121,0,0.304,0.031,0.304,0.396c0,0.213-0.092,0.426-0.304,0.426H20.08V7.929z M21.023,8.203c0,0.609,0.426,0.669,0.608,0.669
			c0.152,0,0.608-0.06,0.608-0.669c0-0.578-0.456-0.639-0.608-0.639C21.449,7.564,21.023,7.625,21.023,8.203z M21.297,8.203
			c0-0.335,0.182-0.426,0.335-0.426c0.121,0,0.334,0.091,0.334,0.426c0,0.365-0.213,0.456-0.334,0.456
			C21.479,8.659,21.297,8.568,21.297,8.203z M23.639,7.473h-0.395l-0.213,0.974l-0.213-0.974h-0.396V8.72h0.243V7.686l0.243,1.034
			h0.244l0.243-1.034V8.72h0.242V7.473z M20.415,11.61h0.243v-1.247h-0.243V11.61z M21.723,11.124L21.723,11.124l-0.486-0.883
			h-0.305v1.278h0.274v-0.913l0.486,0.913h0.273v-1.278h-0.243V11.124z M22.24,10.819c0,0.609,0.426,0.67,0.607,0.67
			c0.153,0,0.579-0.061,0.579-0.67c0-0.578-0.426-0.639-0.579-0.639C22.666,10.18,22.24,10.241,22.24,10.819z M22.483,10.819
			c0-0.334,0.213-0.426,0.364-0.426c0.122,0,0.335,0.092,0.335,0.426c0,0.365-0.213,0.457-0.335,0.457
			C22.696,11.276,22.483,11.184,22.483,10.819z M19.411,3.914c0,0,1.095,0.456,2.008,0.091c1.095-0.456,2.129-0.73,2.92-0.365v9.339
			c-0.669-0.243-1.551-0.152-2.555,0.091c-1.004,0.244-1.582,0.274-2.373,0.122V3.914z"/>
		<polyline fill-rule="evenodd" clip-rule="evenodd" fill="#FFFFFF" points="19.089,3.921 18.207,4.621 18.207,13.991 
			19.089,13.169 19.089,3.921 		"/>
		<path fill-rule="evenodd" clip-rule="evenodd" fill="#FFFFFF" d="M18.481,14.143l0.882-0.7c0.639,0.183,2.008-0.091,2.646-0.183
			c1.064-0.152,1.521-0.365,2.281,0c-0.426,0.183-0.699,0.548-0.699,0.883H18.481"/>
		<path fill-rule="evenodd" clip-rule="evenodd" fill="#FFFFFF" d="M30.375,14.143l-0.851-0.7c-0.73,0.183-1.979-0.091-2.647-0.183
			c-1.156-0.152-1.521-0.365-2.189,0c0.334,0.183,0.577,0.548,0.517,0.883H30.375"/>
		<polyline fill-rule="evenodd" clip-rule="evenodd" fill="#FFFFFF" points="29.767,3.83 30.589,4.621 30.589,13.899 29.767,13.108 
			29.767,3.83 		"/>
		<path fill-rule="evenodd" clip-rule="evenodd" fill="#FFFFFF" d="M28.534,6.165L28.534,6.165l-0.487-0.882h-0.273V6.53h0.242
			V5.648l0.519,0.882h0.272V5.283h-0.272V6.165 M26.648,5.891c0-0.335,0.182-0.426,0.334-0.426c0.121,0,0.335,0.091,0.335,0.426
			c0,0.365-0.214,0.456-0.335,0.456C26.83,6.347,26.648,6.256,26.648,5.891z M26.374,5.891c0,0.608,0.426,0.669,0.608,0.669
			c0.151,0,0.607-0.061,0.607-0.669c0-0.578-0.456-0.639-0.607-0.639C26.8,5.252,26.374,5.313,26.374,5.891z M26.161,5.526
			C26.13,5.343,25.979,5.1,25.613,5.1c-0.334,0-0.578,0.213-0.578,0.639c0,0.456,0.244,0.669,0.578,0.669
			c0.304,0,0.486-0.182,0.548-0.456h-0.274c-0.029,0.152-0.122,0.243-0.273,0.243c-0.243,0-0.305-0.213-0.305-0.456
			c0-0.335,0.184-0.426,0.305-0.426c0.213,0,0.244,0.152,0.273,0.213H26.161z M27.317,9.024h0.273V7.777h-0.273V9.024z
			 M26.374,8.477h0.547V8.234h-0.547V7.96h0.639V7.747H26.1v1.247h0.274V8.477z M27.347,11.002c0-0.335,0.184-0.426,0.335-0.426
			c0.121,0,0.334,0.091,0.334,0.426c0,0.365-0.213,0.456-0.334,0.456C27.53,11.458,27.347,11.367,27.347,11.002z M27.073,11.002
			c0,0.608,0.426,0.669,0.608,0.669c0.152,0,0.608-0.061,0.608-0.669c0-0.578-0.456-0.639-0.608-0.639
			C27.499,10.363,27.073,10.424,27.073,11.002z M25.948,10.424h0.243c0.122,0,0.273,0.03,0.273,0.395
			c0,0.213-0.061,0.426-0.273,0.426h-0.243V10.424z M25.674,11.458h0.548c0.427,0,0.518-0.395,0.518-0.669
			c0-0.243-0.091-0.578-0.518-0.578h-0.548V11.458z M29.446,3.914c0,0-1.096,0.456-2.007,0.091c-1.157-0.456-2.101-0.73-2.77-0.365
			v9.339c0.578-0.243,1.339-0.152,2.373,0.091c1.034,0.244,1.582,0.274,2.403,0.122V3.914z"/>
		<path fill-rule="evenodd" clip-rule="evenodd" fill="#FFFFFF" d="M24.474,13.443c-0.335,0.365-0.517,0.365-0.426,0.7h0.76
			C24.9,13.808,24.808,13.626,24.474,13.443"/>
		<path fill-rule="evenodd" clip-rule="evenodd" fill="#EF3E33" d="M10.379,27.302c0.138,0,0.236,0.109,0.236,0.236
			c0,0.138-0.099,0.246-0.236,0.246c-0.146,0-0.255-0.108-0.255-0.246C10.124,27.411,10.232,27.302,10.379,27.302 M8.63,30.791
			c0.108-0.256,0.354-0.983,0.492-1.239c-0.138-0.235-0.384-0.481-0.59-0.481c0.098-0.236,0.511-0.55,0.452-0.756
			c-0.118-0.207-0.275-0.177-0.698-0.413c0.138-0.285,0.452-0.462,0.659-0.491c0.245-0.049,0.245-0.384,0.619-0.59
			c0.432-0.206,0.874-0.206,1.365-0.255c0.668,0.078,2.467,0.56,1.984,2.751c1.081,2.191,4.893-0.727,6.229-0.727
			c-0.256,0.481-0.59,0.962-0.845,1.454c0.354,0.255,0.845,0,1.229,0c-0.384,1.218-1.12,1.7-1.721,2.191
			c0.601,1.955,2.86,1.189,4.874,0.982c-0.235,0.659-1.061,0.718-1.443,1.209c0.687,0.747,1.443,1.71,1.935,2.683
			c-0.904-0.59-2.78-1.219-3.409-1.455c-1.209-0.481-3.685-0.481-4.893,0c0.235,0.482,0.717,0.727,1.11,0.963
			c-0.63,1.228-1.857,0.492-2.584,0.256c-0.619,0.491-1.77,0.52-2.083,0.236c0,0,0-0.315,0.383-0.551
			c0.235-0.353-0.737-0.422-1.002-0.904c0-0.452,0.48,0,0.746-0.481C10.822,33.935,8.286,33.699,8.63,30.791z"/>
		<path fill-rule="evenodd" clip-rule="evenodd" fill="#EF3E33" d="M27.678,27.66c0.148,0,0.246,0.108,0.246,0.256
			c0,0.127-0.098,0.235-0.246,0.235c-0.137,0-0.245-0.108-0.245-0.235C27.433,27.768,27.541,27.66,27.678,27.66 M25.969,31.138
			c0.108-0.236,0.345-0.972,0.491-1.208c-0.146-0.256-0.383-0.492-0.59-0.492c0.099-0.255,0.511-0.56,0.443-0.776
			c-0.108-0.206-0.267-0.177-0.698-0.412c0.146-0.276,0.462-0.452,0.668-0.482c0.256-0.029,0.256-0.393,0.619-0.599
			c0.432-0.207,0.874-0.207,1.365-0.236c0.668,0.059,2.477,0.55,1.985,2.741c1.08,2.191,4.903-0.727,6.229-0.727
			c-0.246,0.491-0.59,0.983-0.846,1.464c0.364,0.236,0.846,0,1.229,0c-0.383,1.219-1.12,1.71-1.709,2.191
			c0.589,1.946,2.849,1.189,4.862,0.983c-0.234,0.648-1.061,0.727-1.443,1.209c0.698,0.727,1.443,1.709,1.936,2.682
			c-0.903-0.59-2.78-1.228-3.399-1.464c-1.219-0.491-3.694-0.491-4.903,0c0.236,0.491,0.727,0.727,1.11,0.973
			c-0.629,1.218-1.857,0.491-2.574,0.245c-0.629,0.482-1.779,0.531-2.093,0.246c0,0,0-0.305,0.383-0.56
			c0.235-0.344-0.737-0.413-1.002-0.904c0-0.462,0.48,0,0.757-0.491C28.16,34.312,25.615,34.057,25.969,31.138z"/>
		<path fill-rule="evenodd" clip-rule="evenodd" fill="#EF3E33" d="M19.401,39.881c0.107,0,0.207,0.108,0.207,0.256
			c0,0.098-0.1,0.206-0.207,0.206c-0.127,0-0.235-0.108-0.235-0.206C19.166,39.989,19.274,39.881,19.401,39.881 M17.672,43.36
			c0.098-0.236,0.344-0.973,0.491-1.209c-0.147-0.236-0.394-0.491-0.599-0.491c0.107-0.236,0.521-0.56,0.451-0.767
			c-0.107-0.206-0.284-0.167-0.697-0.412c0.147-0.285,0.451-0.452,0.669-0.492c0.234-0.029,0.234-0.383,0.618-0.589
			c0.412-0.216,0.875-0.216,1.355-0.246c0.659,0.079,2.477,0.55,1.985,2.761c1.081,2.191,4.902-0.747,6.22-0.747
			c-0.236,0.492-0.59,0.983-0.825,1.474c0.343,0.236,0.825,0,1.218,0c-0.393,1.209-1.109,1.7-1.71,2.191
			c0.601,1.956,2.86,1.18,4.874,0.973c-0.235,0.649-1.081,0.727-1.464,1.219c0.697,0.727,1.464,1.699,1.955,2.672
			c-0.904-0.589-2.79-1.208-3.409-1.464c-1.229-0.481-3.685-0.481-4.913,0c0.245,0.491,0.737,0.747,1.12,0.983
			c-0.629,1.208-1.847,0.481-2.574,0.235c-0.639,0.492-1.778,0.531-2.084,0.246c0,0,0-0.304,0.364-0.56
			c0.255-0.334-0.727-0.413-1.002-0.904c0-0.442,0.491,0,0.767-0.481C19.863,46.533,17.318,46.298,17.672,43.36z"/>
		<path fill-rule="evenodd" clip-rule="evenodd" fill="#FFFFFF" d="M7.354,10.482l-0.657,0.767l1.277-0.183L7.354,10.482
			 M9.361,9.606l0.803,1.46h-1.57L9.361,9.606z M11.406,10.482l0.657,0.767l-1.278-0.183L11.406,10.482z M12.903,8.584
			c-0.073,0-0.256-0.073,0-0.147c0.146,0,0.511,0,0.913,0.512c0.182-0.073,0.584-0.731,1.021-0.512c0,0.037-1.424,3.177-1.57,3.433
			c-0.62-0.329-4.271-0.548-3.906-0.548c0.292,0-3.322,0.11-3.87,0.548c-0.184-0.329-1.607-3.505-1.607-3.505
			c0.438-0.183,0.913,0.438,1.06,0.511c0.364-0.511,0.729-0.511,0.803-0.511c0.366,0.072,0.146,0.146,0.11,0.219
			c-1.753,1.424,0.803,3.03,1.351,1.424c2.264,0.255,1.643-1.571,1.095-1.826c-0.438-0.109-0.146-0.183,0-0.183
			C8.485,7.89,8.777,7.89,8.777,8.073c0-0.986,0.072-1.645,0.584-1.937c0.548,0.365,0.621,0.95,0.548,1.937
			c0.073-0.183,0.328-0.074,0.548-0.074c0.073,0.074,0.438,0.074,0.073,0.219c-0.621,0.219-1.169,2.155,1.058,1.79
			C12.1,11.614,14.801,9.825,12.903,8.584z"/>
		<path fill-rule="evenodd" clip-rule="evenodd" fill="#FFFFFF" d="M6.663,12.41c0.22,0,0.438,0.219,0.438,0.401
			c0,0.219-0.219,0.438-0.438,0.438c-0.182,0-0.401-0.219-0.401-0.438C6.262,12.629,6.481,12.41,6.663,12.41 M7.979,12.118
			c0.219,0,0.438,0.219,0.438,0.401c0,0.219-0.219,0.438-0.438,0.438c-0.184,0-0.402-0.219-0.402-0.438
			C7.576,12.337,7.795,12.118,7.979,12.118z M9.402,12.008c0.219,0,0.438,0.219,0.438,0.402c0,0.219-0.219,0.438-0.438,0.438
			C9.219,12.848,9,12.629,9,12.41C9,12.227,9.219,12.008,9.402,12.008z M10.826,12.118c0.219,0,0.438,0.219,0.438,0.401
			c0,0.219-0.219,0.438-0.438,0.438c-0.184,0-0.402-0.219-0.402-0.438C10.424,12.337,10.643,12.118,10.826,12.118z M12.177,12.41
			c0.22,0,0.438,0.219,0.438,0.401c0,0.219-0.219,0.438-0.438,0.438c-0.183,0-0.401-0.219-0.401-0.438
			C11.775,12.629,11.994,12.41,12.177,12.41z M6.444,13.651c-0.255-0.438-0.547-1.205-0.693-1.388
			c0.62-0.474,2.921-0.547,3.76-0.547c1.242,0,2.958,0.182,3.506,0.547c0,0-0.256,0.913-0.475,1.461
			c-0.986-0.365-2.3-0.511-3.177-0.511C8.38,13.213,7.211,13.359,6.444,13.651z"/>
		<path fill-rule="evenodd" clip-rule="evenodd" fill="#FFFFFF" d="M9.358,13.506c1.606,0,3.095,0.298,3.095,0.476
			c0,0.179-1.31,0.298-2.977,0.298c-1.606,0-2.975-0.119-2.975-0.298C6.502,13.804,7.751,13.506,9.358,13.506"/>
		<path fill-rule="evenodd" clip-rule="evenodd" fill="#EF3E33" d="M72.198,14.518c-0.311-4.185-1.612-2.914-4.806-4.185
			c-2.572-0.496-2.789-2.356-0.248-2.449c4.589,0.341,6.883,0.403,10.695-0.186c1.736,0.279,2.48,0.992,3.131,2.666
			c3.193,6.758,7.844,16.895,11.037,23.653c0.558,1.21,0.867,1.458,1.581-0.093l9.424-24.087c1.055-2.046,2.201-2.542,5.487-2.232
			c5.673,0.093,7.068-0.062,9.858-0.372c2.418,0.093,2.263,1.953-0.124,2.604c-3.658,0.031-5.58,1.271-6.139,3.999l0.527,27.653
			c0.589,4.123,2.728,4.247,6.572,5.239c1.735,0.775,1.363,1.984-0.124,2.387c-8.029-0.93-10.819-0.868-18.786-0.093
			c-2.294,0.217-2.449-1.767,0.031-2.294c2.944-0.651,3.688-1.178,4.34-2.728l-0.589-26.661c-0.094-1.054-0.744-1.054-1.147,0.186
			L91.667,45.643C90.612,48.03,90.148,48.03,89,46.17l-13.299-28.8c-0.403-0.992-0.899-0.682-0.961-0.062l0.124,25.421
			c0.372,2.945,2.418,3.131,6.571,4.433c1.179,0.372,1.24,1.364,0.279,1.984c-8.122-0.682-9.424-0.682-16.957,0.279
			c-1.178,0-1.735-1.736,0.093-1.984c3.999-1.147,5.084-1.209,5.674-3.503L72.198,14.518 M117.955,34.917
			c1.209-12.153,11.285-15.005,16.462-15.036c6.138,0.186,8.091,2.201,8.153,4.247c0.062,2.046-1.396,3.131-2.977,2.697
			c-3.379-0.868-2.728-4.433-7.223-4.712c-5.085,0.744-8.154,6.448-7.286,13.268c0.868,6.821,7.472,11.905,15.532,7.751
			c1.953-0.434,2.107,1.178,0.526,2.294C126.325,54.54,117.335,41.551,117.955,34.917z M145.825,27.414
			c1.364-14.601,10.726-20.708,23.901-21.793c13.889,0.093,15.872,1.023,15.687,8.773c0.093,2.79-1.767,3.441-3.069,0.279
			c-1.487-2.852-2.728-4.495-6.262-5.952c-11.967-2.697-20.833,4.991-21.36,18.073c-0.837,18.446,19.811,23.84,24.088,16.958
			c0.899-1.798,0.899-6.572,0.775-10.51c-0.744-2.604-3.224-2.356-5.642-2.449c-2.604,0.186-3.534-2.759-0.031-2.728
			c3.379,0,9.889,0.31,18.259-0.465c2.48,0.093,2.666,2.356-0.372,2.697c-1.302,0.248-4.061,0.217-4.433,2.388
			c-0.311,11.222,2.294,12.307-6.169,15.376c-10.788,2.542-22.414,1.364-28.986-4.991C149.266,40.466,145.577,34.483,145.825,27.414
			z M199.611,30.576c-0.155-1.674-0.372-2.976-2.294-3.534c-1.364-0.124-2.016-1.364-0.063-2.108
			c3.906-1.271,4.464-1.488,7.472-3.906c0.93-0.496,2.016-0.093,1.488,1.581c-0.217,1.271-0.186,1.86-0.279,3.224l0.031,17.113
			c0.155,2.79,2.325,3.255,3.721,3.813c1.395,0.558,1.519,2.201-0.124,2.232c-6.077-0.837-7.409-0.93-13.27,0.248
			c-1.953,0.031-2.387-1.457,0.031-2.325s3.224-1.271,3.348-3.348L199.611,30.576z M217.189,43.504
			c-0.155,1.55-0.868,2.573-3.782,3.379c-2.294,0.744-2.016,1.953,0.31,2.046c6.262-0.898,8.215-0.744,13.826-0.124
			c2.201-0.031,1.829-1.457,0.465-2.108c-3.286-1.271-3.813-1.302-4.464-4.557l-0.248-32.861c0-1.891,0.713-4.092-1.302-3.596
			c-3.751,1.488-4.062,1.612-7.471,2.79c-1.799,0.775-1.116,1.643,0.186,2.077c1.829,0.744,1.984,1.86,2.077,3.193L217.189,43.504z
			 M236.471,43.69c-0.154,1.55-0.867,2.573-3.781,3.379c-2.295,0.744-2.016,1.953,0.31,2.046c6.263-0.899,8.215-0.744,13.827-0.124
			c2.201-0.031,1.829-1.457,0.465-2.108c-3.286-1.271-3.814-1.302-4.464-4.557l-0.248-32.861c0-1.891,0.712-4.092-1.303-3.596
			c-3.751,1.488-4.062,1.612-7.472,2.79c-1.798,0.775-1.115,1.643,0.187,2.077c1.829,0.744,1.983,1.86,2.077,3.193L236.471,43.69z
			 M202.96,6.179c1.922,0,3.534,1.581,3.534,3.534s-1.612,3.565-3.534,3.565c-1.923,0-3.504-1.612-3.504-3.565
			S201.037,6.179,202.96,6.179z"/>
	</g>
</g>
<rect x="-331" y="-189.75" fill="none" width="612" height="792"/>
</svg>
